<?xml version="1.0" encoding="UTF-8" standalone="no"?>
<svg
   xmlns:dc="http://purl.org/dc/elements/1.1/"
   xmlns:cc="http://creativecommons.org/ns#"
   xmlns:rdf="http://www.w3.org/1999/02/22-rdf-syntax-ns#"
   xmlns:svg="http://www.w3.org/2000/svg"
   xmlns="http://www.w3.org/2000/svg"
   version="1.1"
   id="svg2"
   viewBox="0 0 16.974458 32"
   width="4.7905693mm"
   height="9.0311108mm">
  <defs
     id="defs8" />
  <metadata
     id="metadata4">
    <rdf:RDF>
      <cc:Work
         rdf:about="">
        <dc:format>image/svg+xml</dc:format>
        <dc:type
           rdf:resource="http://purl.org/dc/dcmitype/StillImage" />
        <dc:title></dc:title>
      </cc:Work>
    </rdf:RDF>
  </metadata>
  <path
     id="path3255"
     d="M 8.4872287,0 C 3.7998607,0 -1.9073489e-6,3.799863 -1.9073489e-6,8.487231 c 0,4.28244 8.4872306073489,23.512771 8.4872306073489,23.512771 0,0 8.4872303,-18.533055 8.4872303,-23.512771 C 16.974459,3.799863 13.174596,0 8.4872287,0 Z m 0,3.143419 A 4.4007862,4.4007862 0 0 1 12.888014,7.544205 4.4007862,4.4007862 0 0 1 8.4872287,11.944992 4.4007862,4.4007862 0 0 1 4.0864424,7.544205 4.4007862,4.4007862 0 0 1 8.4872287,3.143419 Z"
     style="color:#000000;clip-rule:nonzero;display:inline;overflow:visible;visibility:visible;opacity:1;isolation:auto;mix-blend-mode:normal;color-interpolation:sRGB;color-interpolation-filters:linearRGB;solid-color:#000000;solid-opacity:1;;fill-opacity:1;fill-rule:nonzero;stroke:none;stroke-width:1;stroke-linecap:butt;stroke-linejoin:miter;stroke-miterlimit:4;stroke-dasharray:none;stroke-dashoffset:0;stroke-opacity:1;color-rendering:auto;image-rendering:auto;shape-rendering:auto;text-rendering:auto;enable-background:accumulate" />
</svg>
